<?xml version="1.0" standalone="no"?>
<!DOCTYPE svg PUBLIC "-//W3C//DTD SVG 20010904//EN"
 "http://www.w3.org/TR/2001/REC-SVG-20010904/DTD/svg10.dtd">
<svg version="1.0" xmlns="http://www.w3.org/2000/svg"
 width="418.000000pt" height="418.000000pt" viewBox="0 0 418.000000 418.000000"
 preserveAspectRatio="xMidYMid meet">
<metadata>
Created by potrace 1.11, written by Peter Selinger 2001-2013
</metadata>
<g transform="translate(0.000000,418.000000) scale(0.100000,-0.100000)"
fill="#000000" stroke="none">
<path d="M1811 3373 c-17 -126 -30 -296 -24 -326 4 -21 -1 -28 -28 -42 -61
-31 -70 -44 -64 -89 6 -40 5 -41 -37 -61 -61 -29 -197 -167 -245 -250 -116
-200 -156 -480 -118 -809 15 -124 23 -164 67 -311 25 -84 108 -261 156 -330
19 -27 52 -68 73 -90 22 -23 39 -45 39 -50 0 -6 -21 -22 -46 -37 -32 -20 -51
-41 -65 -73 -14 -33 -27 -47 -47 -52 -46 -11 -180 -71 -212 -95 -26 -19 -34
-20 -48 -10 -123 89 -328 112 -507 55 -128 -40 -266 -138 -335 -238 -105 -153
-148 -366 -105 -513 l16 -52 467 2 467 3 3 75 c2 41 -2 115 -8 163 -7 49 -9
91 -6 94 9 10 97 -49 120 -80 18 -25 21 -42 21 -143 l0 -114 1418 0 1417 0 0
384 0 384 -70 36 c-139 73 -268 102 -424 93 -167 -8 -325 -78 -439 -193 -31
-31 -40 -36 -47 -24 -6 8 -10 21 -10 28 0 20 -59 135 -78 152 -46 43 -157 89
-234 97 -54 5 -59 8 -75 42 -27 54 -89 90 -194 111 -50 11 -93 20 -95 22 -1 2
12 23 31 46 95 120 154 334 141 509 -3 48 -10 189 -16 313 -15 344 -56 535
-152 701 -78 135 -195 223 -335 251 -44 9 -57 16 -69 39 -10 21 -22 29 -42 30
-57 1 -63 9 -123 178 -58 164 -98 252 -116 258 -6 2 -15 -35 -22 -84z m108
-161 c34 -92 59 -175 56 -183 -10 -26 -54 -44 -107 -44 -63 0 -70 12 -63 100
15 188 30 295 40 295 6 0 39 -76 74 -168z m-247 -569 c30 -27 16 -96 -26 -125
-33 -23 -116 5 -116 38 0 36 31 73 72 87 24 9 45 16 47 16 3 1 13 -6 23 -16z
m-135 -199 c9 -23 -14 -63 -41 -74 -14 -5 -44 -26 -67 -47 -32 -29 -41 -33
-36 -18 3 11 9 31 12 45 21 73 114 140 132 94z m677 -35 c76 -89 -32 -234
-160 -214 -41 6 -79 36 -103 82 -16 31 -14 99 4 133 l16 30 108 0 109 0 26
-31z m-445 -34 c72 -82 16 -202 -99 -213 -107 -10 -175 74 -139 175 9 27 19
33 82 51 104 29 120 28 156 -13z m-273 -341 c30 -8 43 -51 51 -161 5 -78 5
-83 -14 -83 -33 0 -91 52 -112 100 -21 49 -41 144 -41 198 l0 34 47 -41 c25
-23 57 -44 69 -47z"/>
<path d="M2068 2345 c-10 -22 -9 -28 6 -43 16 -16 18 -16 31 1 9 12 11 27 6
40 -12 31 -29 32 -43 2z"/>
<path d="M1654 2316 c-11 -28 0 -61 21 -61 16 0 20 7 20 35 0 25 -5 36 -18 38
-9 2 -20 -3 -23 -12z"/>
</g>
</svg>
